<svg width="16" height="17" viewBox="0 0 16 17" fill="none" xmlns="http://www.w3.org/2000/svg" class="no-stroke"><g clip-path="url(#clip0_5460_18436)"><path fill-rule="evenodd" clip-rule="evenodd" d="M4 1.5H12C12.5523 1.5 13 1.94772 13 2.5V13.35C13 13.6068 12.9012 13.8537 12.7241 14.0397L12.0575 14.7397C11.6634 15.1534 11.0033 15.1534 10.6092 14.7397L10.3908 14.5103C9.99672 14.0966 9.33662 14.0966 8.94253 14.5103L8.72414 14.7397C8.33005 15.1534 7.66995 15.1534 7.27586 14.7397L7.05747 14.5103C6.66338 14.0966 6.00328 14.0966 5.6092 14.5103L5.3908 14.7397C4.99672 15.1534 4.33662 15.1534 3.94253 14.7397L3.27586 14.0397C3.09877 13.8537 3 13.6068 3 13.35V2.5C3 1.94772 3.44772 1.5 4 1.5ZM5 4C4.72386 4 4.5 4.22386 4.5 4.5C4.5 4.77614 4.72386 5 5 5H10C10.2761 5 10.5 4.77614 10.5 4.5C10.5 4.22386 10.2761 4 10 4H5ZM5 6.5C4.72386 6.5 4.5 6.72386 4.5 7C4.5 7.27614 4.72386 7.5 5 7.5H7.33333C7.60948 7.5 7.83333 7.27614 7.83333 7C7.83333 6.72386 7.60948 6.5 7.33333 6.5H5Z" fill="#000000"></path></g><defs><clipPath id="clip0_5460_18436"><rect width="10" height="14" fill="white" transform="translate(3 1.5)"></rect></clipPath></defs></svg>