<svg width="91" height="90" viewBox="0 0 91 90" fill="none" xmlns="http://www.w3.org/2000/svg"><circle cx="45" cy="45" r="44.5" fill="#F3F3F9" stroke="#DCE0E8"></circle><rect x="73" y="16.5" width="48" height="72.5" rx="4.5" transform="rotate(90 73 16.5)" fill="white" stroke="#DCE0E8"></rect><rect y="28.7826" width="73.5" height="1.06522" rx="0.532609" fill="#DCE0E8"></rect><rect x="7.45651" y="55.413" width="10.6522" height="2.13043" rx="1.06522" fill="#DCE0E8"></rect><rect x="62" y="50" width="23" height="23" fill="white"></rect><path d="M80.092 64.1306H80.0999L80.1079 64.1303C80.9005 64.1052 81.6523 63.7726 82.2041 63.203C82.7559 62.6334 83.0644 61.8715 83.0644 61.0784C83.0644 60.2854 82.7559 59.5234 82.2041 58.9539C81.6523 58.3843 80.9005 58.0517 80.1079 58.0265L80.0999 58.0263H80.092H76.0509V53.9877C76.0509 53.1786 75.7294 52.4026 75.1573 51.8304C74.5851 51.2583 73.8091 50.9369 73 50.9369C72.1909 50.9369 71.4149 51.2583 70.8427 51.8304C70.2706 52.4026 69.9491 53.1786 69.9491 53.9877V58.0263H65.908H65.9001L65.8921 58.0265C65.0995 58.0517 64.3477 58.3843 63.7959 58.9539C63.2441 59.5234 62.9356 60.2854 62.9356 61.0784C62.9356 61.8715 63.2441 62.6334 63.7959 63.203C64.3477 63.7726 65.0995 64.1052 65.8921 64.1303L65.9001 64.1306H65.908H69.9491V68.1691C69.9491 68.9783 70.2706 69.7543 70.8427 70.3264C71.4149 70.8986 72.1909 71.22 73 71.22C73.8091 71.22 74.5851 70.8986 75.1573 70.3264C75.7294 69.7543 76.0509 68.9783 76.0509 68.1691V64.1306H80.092ZM63.2775 46.4493C66.1554 44.5264 69.5388 43.5 73 43.5C77.6413 43.5 82.0925 45.3437 85.3744 48.6256C88.6563 51.9075 90.5 56.3587 90.5 61C90.5 64.4612 89.4736 67.8446 87.5507 70.7225C85.6278 73.6003 82.8947 75.8434 79.697 77.1679C76.4993 78.4924 72.9806 78.839 69.5859 78.1637C66.1913 77.4885 63.0731 75.8218 60.6256 73.3744C58.1782 70.9269 56.5115 67.8087 55.8363 64.4141C55.161 61.0194 55.5076 57.5007 56.8321 54.303C58.1566 51.1053 60.3997 48.3722 63.2775 46.4493Z" fill="#F3F3F9" stroke="#DCE0E8"></path></svg>