<svg width="12" height="12" viewBox="0 0 12 12" fill="none" xmlns="http://www.w3.org/2000/svg"><path fill-rule="evenodd" clip-rule="evenodd" d="M4.09615 0.75C4.09615 0.335786 3.76037 0 3.34615 0C2.93194 0 2.59615 0.335786 2.59615 0.75V1.97448H2.5C1.11929 1.97448 0 3.09376 0 4.47448V9.49379C0 10.8745 1.11929 11.9938 2.5 11.9938H9.5C10.8807 11.9938 12 10.8745 12 9.49379V4.47448C12 3.13893 10.9527 2.04798 9.63461 1.97804V0.75C9.63461 0.335786 9.29883 0 8.88461 0C8.4704 0 8.13461 0.335786 8.13461 0.75V1.97448H4.09615V0.75ZM1.5 6.76449V9.49379C1.5 10.0461 1.94772 10.4938 2.5 10.4938H9.5C10.0523 10.4938 10.5 10.0461 10.5 9.49379V6.76449H1.5ZM10.5 5.26449V4.47448C10.5 3.92219 10.0523 3.47448 9.5 3.47448H2.5C1.94772 3.47448 1.5 3.92219 1.5 4.47448V5.26449H10.5Z" fill="#1A1A1A"></path></svg>