<svg width="17" height="16" viewBox="0 0 17 16" fill="none" xmlns="http://www.w3.org/2000/svg"><path fill-rule="evenodd" clip-rule="evenodd" d="M8.67857 2H11.8214C13.2021 2 14.3214 3.11929 14.3214 4.5V7.64286C14.3214 9.02357 13.2021 10.1429 11.8214 10.1429H10.8929V11.0714C10.8929 12.4521 9.77357 13.5714 8.39286 13.5714H5.25C3.86929 13.5714 2.75 12.4521 2.75 11.0714V7.92857C2.75 6.54786 3.86929 5.42857 5.25 5.42857H6.17857V4.5C6.17857 3.11929 7.29786 2 8.67857 2ZM11.8214 8.64286H10.8929V7.92857C10.8929 6.54786 9.77357 5.42857 8.39286 5.42857H7.67857V4.5C7.67857 3.94772 8.12629 3.5 8.67857 3.5H11.8214C12.3737 3.5 12.8214 3.94772 12.8214 4.5V7.64286C12.8214 8.19514 12.3737 8.64286 11.8214 8.64286ZM9.39286 7.92857C9.39286 7.37629 8.94514 6.92857 8.39286 6.92857H7.67857H6.17857H6.10714H5.25C4.69772 6.92857 4.25 7.37629 4.25 7.92857V11.0714C4.25 11.6237 4.69772 12.0714 5.25 12.0714H8.39286C8.94514 12.0714 9.39286 11.6237 9.39286 11.0714V10.2143V10.1429V8.64286V7.92857Z" fill="white"></path></svg>