<svg width="20" height="20" viewBox="0 0 20 20" fill="none" xmlns="http://www.w3.org/2000/svg"><path fill-rule="evenodd" clip-rule="evenodd" d="M10 0C4.47715 0 0 4.47715 0 10C0 15.5228 4.47715 20 10 20C15.5228 20 20 15.5228 20 10C20 7.34784 18.9464 4.8043 17.0711 2.92893C15.1957 1.05357 12.6522 0 10 0ZM10 3.57143C10.5917 3.57143 11.0714 4.05112 11.0714 4.64286C11.0714 5.23459 10.5917 5.71429 10 5.71429C9.40827 5.71429 8.92857 5.23459 8.92857 4.64286C8.92857 4.05112 9.40827 3.57143 10 3.57143ZM12.8571 15.8001H7.14286V14.2001H9.2V9.37148H7.85714V7.77148H10.8071V14.2001H12.8571V15.8001Z" fill="#0A54C2"></path></svg>