<svg width="99" height="29" viewBox="0 0 99 29" fill="none" xmlns="http://www.w3.org/2000/svg"><g clip-path="url(#clip0_913_463)"><path d="M32.5727 1.41007C34.3071 0.474184 36.3539 0.00624084 38.7133 0.00624084C40.5986 0.00624084 42.2834 0.370197 43.7676 1.09811C45.1981 1.77637 46.42 2.81691 47.3081 4.11322C48.1066 5.2974 48.6161 6.64755 48.7966 8.05798C48.8037 8.11928 48.7976 8.18135 48.7788 8.24019C48.7599 8.29902 48.7288 8.3533 48.6872 8.39949C48.6457 8.44568 48.5948 8.48275 48.5378 8.5083C48.4808 8.53384 48.419 8.54729 48.3564 8.54776H43.3036C43.2086 8.54626 43.1168 8.51375 43.0426 8.45531C42.9684 8.39688 42.9159 8.31583 42.8935 8.22488C42.6671 7.32066 42.174 6.50274 41.4763 5.87425C40.7174 5.20249 39.7425 4.86609 38.5517 4.86505C36.9271 4.86505 35.6488 5.46818 34.7167 6.67443C33.7845 7.88069 33.319 9.45453 33.3201 11.396C33.3201 13.3801 33.7803 14.9643 34.7008 16.1487C35.6213 17.3331 36.9266 17.9253 38.6167 17.9253C39.6632 17.9292 40.6911 17.6526 41.5904 17.1252C42.5098 16.5938 43.1326 15.7187 43.4588 14.5V14.4688H38.8542C38.7974 14.4688 38.7412 14.4578 38.6888 14.4364C38.6363 14.415 38.5887 14.3836 38.5485 14.3441C38.5084 14.3045 38.4765 14.2576 38.4548 14.2059C38.4331 14.1543 38.4219 14.0989 38.4219 14.043V10.4133C38.4219 10.3574 38.4331 10.302 38.4548 10.2503C38.4765 10.1987 38.5084 10.1517 38.5485 10.1122C38.5887 10.0726 38.6363 10.0413 38.6888 10.0199C38.7412 9.99848 38.7974 9.98747 38.8542 9.98747H48.9502V22.1727C48.9497 22.2858 48.9038 22.3941 48.8225 22.4739C48.7412 22.5537 48.6311 22.5985 48.5163 22.5985H45.3162C45.2216 22.5988 45.1296 22.5684 45.0544 22.512C44.9791 22.4556 44.9248 22.3764 44.8997 22.2866L44.3344 20.2323C43.6423 21.0594 42.7558 21.7078 41.7519 22.1212C40.5928 22.5897 39.3483 22.8185 38.0957 22.7935C35.9317 22.7935 34.0258 22.3256 32.3779 21.3897C30.7369 20.4567 29.4092 19.0707 28.5587 17.4028C27.6593 15.686 27.2101 13.6858 27.2112 11.4022C27.2112 9.0989 27.6714 7.09298 28.5919 5.38447C29.4881 3.69921 30.8741 2.31547 32.5727 1.41007Z" fill="black"></path><path d="M62.5361 10.5537C62.5361 10.6666 62.4905 10.7749 62.4095 10.8548C62.3284 10.9346 62.2185 10.9795 62.1038 10.9795H60.4254C58.1515 10.9795 57.0141 12.2066 57.0131 14.6607V22.1727C57.0131 22.2856 56.9675 22.3939 56.8864 22.4738C56.8054 22.5537 56.6954 22.5985 56.5808 22.5985H51.8305C51.7158 22.5985 51.6059 22.5537 51.5248 22.4738C51.4437 22.3939 51.3982 22.2856 51.3982 22.1727V6.50753C51.3982 6.39459 51.4437 6.28628 51.5248 6.20642C51.6059 6.12656 51.7158 6.0817 51.8305 6.0817H56.2023C56.3036 6.08154 56.4018 6.11643 56.4796 6.18029C56.5575 6.24415 56.6101 6.33292 56.6283 6.43109L57.0178 8.515C57.4623 7.7572 58.1011 7.12783 58.8704 6.69002C59.6094 6.28655 60.5626 6.08378 61.7301 6.0817H62.5361V10.5537Z" fill="black"></path><path d="M66.653 6.93024C67.9641 6.23768 69.4858 5.8914 71.218 5.8914C72.9947 5.8914 74.5601 6.22209 75.9145 6.88345C77.2188 7.50124 78.3174 8.47247 79.0814 9.6833C79.8393 10.8896 80.2188 12.2819 80.2199 13.8605C80.2294 14.4616 80.1764 15.0622 80.0615 15.6527H68.3552V15.7167C68.637 17.7662 69.7201 18.791 71.6044 18.791C73.0749 18.791 74.0081 18.2794 74.4039 17.2562C74.4321 17.1736 74.4853 17.1015 74.5563 17.0496C74.6274 16.9977 74.7129 16.9686 74.8014 16.9661H79.4915C79.5566 16.9658 79.6209 16.9798 79.6798 17.0069C79.7387 17.0341 79.7908 17.0738 79.8323 17.1232C79.8738 17.1726 79.9037 17.2304 79.9198 17.2925C79.9358 17.3546 79.9378 17.4194 79.9253 17.4824C79.7215 18.359 79.3271 19.1817 78.7694 19.8938C78.0426 20.8145 77.0932 21.5412 76.0079 22.0074C74.8467 22.5273 73.5093 22.7873 71.9955 22.7873C70.0236 22.7873 68.323 22.4457 66.8937 21.7625C65.5309 21.1401 64.3923 20.1245 63.6286 18.8503C62.8813 17.59 62.5076 16.1066 62.5076 14.4002C62.5076 12.6719 62.8702 11.1677 63.5954 9.88764C64.3004 8.62948 65.3631 7.60158 66.653 6.93024ZM73.6059 10.4523C73.0548 10.0363 72.3565 9.82837 71.511 9.82837C70.6433 9.82837 69.945 10.0363 69.4161 10.4523C68.8872 10.8682 68.5568 11.4708 68.4249 12.2601H74.6636C74.5095 11.4708 74.1558 10.8682 73.6027 10.4523H73.6059Z" fill="black"></path><path d="M88.8623 17.0596L92.2445 6.37962C92.2723 6.29303 92.3273 6.21738 92.4016 6.16356C92.4759 6.10974 92.5656 6.08053 92.6578 6.08014H97.7247C97.795 6.08036 97.8641 6.09738 97.9262 6.12974C97.9883 6.16209 98.0415 6.20881 98.0812 6.26588C98.1209 6.32295 98.146 6.38867 98.1542 6.45739C98.1625 6.52611 98.1537 6.59577 98.1285 6.66039L91.0727 24.7121C90.7686 25.5577 90.3826 26.3726 89.92 27.1454C89.5698 27.7146 89.0797 28.1878 88.4949 28.5211C87.9217 28.8404 87.1912 29 86.3034 29H81.6006C81.486 29 81.376 28.9551 81.295 28.8753C81.2139 28.7954 81.1683 28.6871 81.1683 28.5742V24.8493C81.1683 24.7364 81.2139 24.6281 81.295 24.5482C81.376 24.4684 81.486 24.4235 81.6006 24.4235H83.8C84.3204 24.4235 84.7105 24.3486 84.9702 24.1989C85.2299 24.0507 85.4357 23.7512 85.5877 23.3036L85.8141 22.6952L79.6055 6.66039C79.5807 6.59585 79.5721 6.52637 79.5805 6.45786C79.5889 6.38935 79.614 6.32387 79.6537 6.267C79.6934 6.21013 79.7465 6.16357 79.8084 6.13131C79.8703 6.09904 79.9392 6.08202 80.0093 6.0817H85.0367C85.1287 6.08198 85.2182 6.11097 85.2925 6.16449C85.3667 6.21801 85.4219 6.29333 85.45 6.37962L88.8623 17.0596Z" fill="black"></path><path d="M1.04352 15.0319C0.777501 15.0311 0.522549 14.9269 0.334003 14.7421C0.145457 14.5572 0.0385357 14.3066 0.0364522 14.0445L3.39254e-05 8.0455C-0.00106548 7.91397 0.0245666 7.78356 0.0754195 7.66194C0.126272 7.54032 0.201317 7.42996 0.296135 7.33735L7.401 0.336919C7.49434 0.244479 7.6054 0.171227 7.72772 0.121422C7.85004 0.0716168 7.98119 0.0462488 8.11355 0.046792H14.0609C14.3279 0.0472045 14.5838 0.151855 14.7726 0.337809C14.9613 0.523764 15.0676 0.775855 15.068 1.03883V6.08326C15.068 6.34651 14.9619 6.599 14.7731 6.78529C14.5843 6.97158 14.3282 7.07645 14.0609 7.07686H9.23937C8.79294 7.07769 8.36506 7.25285 8.04954 7.56396C7.73402 7.87507 7.5566 8.29673 7.55618 8.7365V14.0399C7.55576 14.3031 7.44931 14.5554 7.26019 14.7414C7.07108 14.9274 6.81477 15.0319 6.54753 15.0319H1.04352Z" fill="black"></path><path d="M8.87987 22.8637C8.61278 22.8637 8.35663 22.7592 8.16777 22.5731C7.9789 22.3871 7.8728 22.1348 7.8728 21.8717V16.8272C7.8728 16.5641 7.9789 16.3118 8.16777 16.1258C8.35663 15.9397 8.61278 15.8352 8.87987 15.8352H13.7014C14.1481 15.8348 14.5764 15.6598 14.8923 15.3486C15.2081 15.0375 15.3858 14.6156 15.3862 14.1756V8.8722C15.3862 8.60895 15.4922 8.35646 15.6811 8.17017C15.8699 7.98387 16.126 7.87901 16.3933 7.8786H21.8973C22.1634 7.87941 22.4186 7.9835 22.6074 8.16831C22.7962 8.35312 22.9034 8.60378 22.9059 8.86596L22.9408 14.8666C22.9416 14.9979 22.916 15.1281 22.8655 15.2497C22.8149 15.3712 22.7404 15.4817 22.6462 15.5747L15.5398 22.5751C15.3505 22.7606 15.0942 22.8644 14.8272 22.8637H8.87987Z" fill="black"></path></g><defs><clipPath id="clip0_913_463"><rect width="98.1538" height="29" fill="white"></rect></clipPath></defs></svg>