<svg width="16" height="17" viewBox="0 0 16 17" fill="none" xmlns="http://www.w3.org/2000/svg" class="right-arrow"><path fill-rule="evenodd" clip-rule="evenodd" d="M8.17751 12.6556L11.2579 9.58991L2.06579 9.54763C1.92514 9.5471 1.78597 9.51864 1.65625 9.46389C1.52653 9.40914 1.4088 9.32916 1.30981 9.22854C1.21081 9.12792 1.1325 9.00862 1.07934 8.87749C1.02618 8.74635 0.999227 8.60594 1.00002 8.4643C1.00067 8.32275 1.02902 8.18271 1.08345 8.05219C1.13788 7.92168 1.21732 7.80324 1.31723 7.70366C1.41714 7.60408 1.53556 7.5253 1.66572 7.47184C1.79587 7.41837 1.93522 7.39126 2.07579 7.39205L11.2659 7.43333L8.2265 4.33639C8.12743 4.23595 8.049 4.11683 7.99568 3.98583C7.94237 3.85484 7.91521 3.71456 7.91577 3.57299C7.91633 3.43142 7.94458 3.29136 7.99893 3.1608C8.05328 3.03024 8.13265 2.91174 8.2325 2.81209C8.43438 2.61093 8.70729 2.49869 8.99129 2.50001C9.27528 2.50133 9.54715 2.61611 9.74718 2.81914L14.7461 7.9025C14.91 8.0694 15.0013 8.295 15 8.52969C14.9987 8.76438 14.9048 8.98894 14.7391 9.15396L9.68719 14.188C9.48548 14.3891 9.21274 14.5013 8.9289 14.5C8.64507 14.4987 8.37336 14.3839 8.17351 14.1809C8.07428 14.0805 7.99567 13.9614 7.94217 13.8304C7.88867 13.6994 7.86132 13.5591 7.8617 13.4175C7.86207 13.2758 7.89015 13.1356 7.94434 13.0049C7.99853 12.8742 8.07776 12.7555 8.17751 12.6556Z" fill="#1A1A1A"></path></svg>