<svg width="12" height="12" viewBox="0 0 12 12" fill="none" xmlns="http://www.w3.org/2000/svg"><path fill-rule="evenodd" clip-rule="evenodd" d="M7.69951 1.98666C7.50917 1.78659 7.19269 1.77871 6.99262 1.96904C6.79255 2.15938 6.78467 2.47586 6.97501 2.67593L7.59942 3.33226H3.71997C3.07564 3.33226 2.5533 3.8546 2.5533 4.49893V4.83291C2.5533 5.10905 2.77716 5.33291 3.0533 5.33291C3.32945 5.33291 3.5533 5.10905 3.5533 4.83291V4.49893C3.5533 4.40688 3.62792 4.33226 3.71997 4.33226H7.59942L6.97501 4.98859C6.78467 5.18866 6.79255 5.50514 6.99262 5.69548C7.19269 5.88582 7.50917 5.87793 7.69951 5.67787L9.12749 4.1769C9.31116 3.98385 9.31116 3.68068 9.12749 3.48763L7.69951 1.98666ZM3.96757 10.0132C4.1579 10.2132 4.47439 10.2211 4.67445 10.0308C4.87452 9.84045 4.88241 9.52396 4.69207 9.3239L4.06765 8.66757L7.9471 8.66757C8.59144 8.66757 9.11377 8.14523 9.11377 7.5009V7.16692C9.11377 6.89078 8.88991 6.66692 8.61377 6.66692C8.33763 6.66692 8.11377 6.89078 8.11377 7.16692V7.5009C8.11377 7.59295 8.03915 7.66757 7.9471 7.66757L4.06765 7.66757L4.69207 7.01124C4.88241 6.81117 4.87452 6.49469 4.67445 6.30435C4.47439 6.11401 4.1579 6.1219 3.96757 6.32196L2.53958 7.82293C2.35592 8.01598 2.35592 8.31915 2.53958 8.5122L3.96757 10.0132Z" fill="#3D87F5"></path></svg>