<svg width="16" height="17" viewBox="0 0 16 17" fill="none" xmlns="http://www.w3.org/2000/svg"><g clip-path="url(#clip0_134_833)"><path fill-rule="evenodd" clip-rule="evenodd" d="M6.6 8.49997C8.1464 8.49997 9.4 7.24637 9.4 5.69997C9.4 4.15358 8.1464 2.89997 6.6 2.89997C5.0536 2.89997 3.8 4.15358 3.8 5.69997C3.8 7.24637 5.0536 8.49997 6.6 8.49997ZM4.36 9.89997C2.50432 9.89997 1 11.4043 1 13.26C1 13.7239 1.37608 14.1 1.84 14.1H11.36C11.8239 14.1 12.2 13.7239 12.2 13.26C12.2 11.4043 10.6957 9.89997 8.84 9.89997H4.36Z" fill="#1A1A1A"></path><path fill-rule="evenodd" clip-rule="evenodd" d="M10.8002 9.19998C12.1257 9.19998 13.2002 8.10307 13.2002 6.74998C13.2002 5.39688 12.1257 4.29998 10.8002 4.29998C9.47474 4.29998 8.40022 5.39688 8.40022 6.74998C8.40022 8.10307 9.47474 9.19998 10.8002 9.19998ZM9.53998 10.425C7.91626 10.425 6.59998 11.7413 6.59998 13.365C6.59998 13.7709 6.92905 14.1 7.33498 14.1H14.265C14.6709 14.1 15 13.7709 15 13.365C15 11.7413 13.6837 10.425 12.06 10.425H9.53998Z" fill="#4F4F4F"></path></g><defs><clipPath id="clip0_134_833"><rect width="14" height="11.2" fill="white" transform="matrix(-1 0 0 1 15 2.9)"></rect></clipPath></defs></svg>