<svg width="16" height="17" viewBox="0 0 16 17" fill="#000000" xmlns="http://www.w3.org/2000/svg"><path fill-rule="evenodd" clip-rule="evenodd" d="M4 3H9.85644C10.961 3 11.8564 3.89543 11.8564 5V5.35017H12.9988C13.5511 5.35017 13.9988 5.79788 13.9988 6.35017V12.0016C13.9988 12.5539 13.5511 13.0016 12.9988 13.0016H3.00003C2.44775 13.0016 2.00003 12.5539 2.00003 12.0016V6.56228L2 6.55048V5C2 3.89543 2.89543 3 4 3ZM10.3564 5V5.35017H3.5V5C3.5 4.72386 3.72386 4.5 4 4.5H9.85644C10.1326 4.5 10.3564 4.72386 10.3564 5ZM11.4281 9.60092C11.9014 9.60092 12.2851 9.22029 12.2851 8.75076C12.2851 8.28123 11.9014 7.9006 11.4281 7.9006C10.9547 7.9006 10.571 8.28123 10.571 8.75076C10.571 9.22029 10.9547 9.60092 11.4281 9.60092Z" fill="#000000"></path></svg>