<svg width="16" height="16" viewBox="0 0 16 16" fill="none" xmlns="http://www.w3.org/2000/svg"><path fill-rule="evenodd" clip-rule="evenodd" d="M8 0C3.58172 0 0 3.58172 0 8C0 12.4183 3.58172 16 8 16C12.4183 16 16 12.4183 16 8C16 5.87827 15.1571 3.84344 13.6569 2.34315C12.1566 0.842855 10.1217 0 8 0ZM8 2.8572C8.47339 2.8572 8.85715 3.24096 8.85715 3.71434C8.85715 4.18773 8.47339 4.57149 8 4.57149C7.52662 4.57149 7.14286 4.18773 7.14286 3.71434C7.14286 3.24096 7.52662 2.8572 8 2.8572ZM10.2857 12.64H5.71429V11.36H7.36V7.49716H6.28571V6.21716H8.64571V11.36H10.2857V12.64Z" fill="#0A54C2"></path></svg>