<svg width="20" height="20" viewBox="0 0 20 20" fill="none" xmlns="http://www.w3.org/2000/svg"><path d="M10.3744 7.87501C10.5211 7.87462 10.6616 7.81617 10.7653 7.71246C10.8691 7.60874 10.9275 7.46819 10.9279 7.32151V6.76651C10.9279 6.46401 10.6794 6.21301 10.3744 6.21301C10.0694 6.21301 9.81989 6.46401 9.81989 6.76651V7.32151C9.81989 7.62601 10.0694 7.87501 10.3744 7.87501ZM9.26739 10.0905H9.81989V13.2295C9.81989 13.534 10.0694 13.783 10.3744 13.783C10.5211 13.7826 10.6616 13.7242 10.7653 13.6205C10.8691 13.5167 10.9275 13.3762 10.9279 13.2295V9.53651C10.9275 9.38984 10.8691 9.24928 10.7653 9.14557C10.6616 9.04185 10.5211 8.98341 10.3744 8.98301H9.26739C8.96189 8.98301 8.71289 9.23251 8.71289 9.53651C8.71289 9.84151 8.96189 10.0905 9.26739 10.0905Z" fill="black"></path><path d="M10 16.875C6.209 16.875 3.125 13.791 3.125 10.0005C3.125 6.2095 6.209 3.125 10 3.125C13.791 3.125 16.875 6.2095 16.875 10.0005C16.875 13.791 13.791 16.875 10 16.875ZM10 3.625C6.485 3.625 3.625 6.485 3.625 10.0005C3.625 13.5155 6.485 16.375 10 16.375C13.515 16.375 16.375 13.5155 16.375 10.0005C16.375 6.485 13.515 3.625 10 3.625Z" fill="black"></path></svg>