<svg width="71" height="72" viewBox="0 0 71 72" fill="none" xmlns="http://www.w3.org/2000/svg"><path opacity="0.4" d="M26.625 6.41667C18.8742 6.41667 12.5729 12.7179 12.5729 20.4688C12.5729 28.0717 18.5192 34.225 26.27 34.4913C26.5067 34.4617 26.7433 34.4617 26.9208 34.4913C26.98 34.4913 27.0096 34.4913 27.0687 34.4913C27.0983 34.4913 27.0983 34.4913 27.1279 34.4913C34.7012 34.225 40.6475 28.0717 40.6771 20.4688C40.6771 12.7179 34.3758 6.41667 26.625 6.41667Z" fill="#E6E6E6"></path><path d="M41.6533 42.3604C33.3996 36.8579 19.9392 36.8579 11.6263 42.3604C7.86917 44.875 5.79834 48.2771 5.79834 51.9158C5.79834 55.5546 7.86917 58.9271 11.5967 61.4121C15.7383 64.1929 21.1817 65.5833 26.625 65.5833C32.0683 65.5833 37.5117 64.1929 41.6533 61.4121C45.3808 58.8975 47.4517 55.525 47.4517 51.8567C47.4221 48.2179 45.3808 44.8454 41.6533 42.3604Z" fill="#E6E6E6"></path><path opacity="0.4" d="M59.1371 22.2142C59.6104 27.9533 55.5279 32.9825 49.8775 33.6629C49.8479 33.6629 49.8479 33.6629 49.8183 33.6629H49.7296C49.5521 33.6629 49.3746 33.6629 49.2266 33.7221C46.3571 33.87 43.7241 32.9529 41.7421 31.2667C44.7891 28.545 46.5346 24.4625 46.1796 20.025C45.9725 17.6287 45.1442 15.4396 43.9017 13.5758C45.0258 13.0137 46.3275 12.6587 47.6587 12.5404C53.4571 12.0375 58.6342 16.3567 59.1371 22.2142Z" fill="#E6E6E6"></path><path d="M65.0538 49.5788C64.8171 52.4483 62.9829 54.9333 59.9063 56.6196C56.9479 58.2467 53.2204 59.0158 49.5225 58.9271C51.6525 57.0042 52.895 54.6079 53.1317 52.0638C53.4275 48.3954 51.6821 44.875 48.1913 42.0646C46.2092 40.4967 43.9017 39.2542 41.3871 38.3371C47.925 36.4438 56.1492 37.7158 61.2079 41.7983C63.9296 43.9875 65.32 46.7388 65.0538 49.5788Z" fill="#E6E6E6"></path></svg>