<svg width="16" height="16" viewBox="0 0 16 16" fill="none" xmlns="http://www.w3.org/2000/svg"><path fill-rule="evenodd" clip-rule="evenodd" d="M10.799 1.98012C10.5135 1.68002 10.0388 1.66819 9.73866 1.9537C9.43856 2.2392 9.42673 2.71393 9.71224 3.01403L10.6489 3.99852H4.82968C3.86319 3.99852 3.07968 4.78203 3.07968 5.74852V6.24949C3.07968 6.6637 3.41547 6.99949 3.82968 6.99949C4.2439 6.99949 4.57968 6.6637 4.57968 6.24949V5.74852C4.57968 5.61045 4.69161 5.49852 4.82968 5.49852H10.6489L9.71224 6.48302C9.42673 6.78312 9.43856 7.25785 9.73866 7.54335C10.0388 7.82886 10.5135 7.81703 10.799 7.51693L12.941 5.26548C13.2165 4.9759 13.2165 4.52115 12.941 4.23157L10.799 1.98012ZM5.20114 14.0199C5.48665 14.32 5.96137 14.3318 6.26147 14.0463C6.56157 13.7608 6.5734 13.2861 6.28789 12.986L5.35127 12.0015H11.1704C12.1369 12.0015 12.9204 11.218 12.9204 10.2515V9.75051C12.9204 9.3363 12.5847 9.00051 12.1704 9.00051C11.7562 9.00051 11.4204 9.3363 11.4204 9.75051V10.2515C11.4204 10.3896 11.3085 10.5015 11.1704 10.5015H5.35127L6.28789 9.51698C6.5734 9.21689 6.56157 8.74216 6.26147 8.45665C5.96137 8.17115 5.48664 8.18298 5.20114 8.48307L3.05916 10.7345C2.78366 11.0241 2.78366 11.4789 3.05916 11.7684L5.20114 14.0199Z" fill="#1A1A1A"></path></svg>