<svg width="98" height="95" viewBox="0 0 98 95" fill="none" xmlns="http://www.w3.org/2000/svg"><circle cx="45" cy="50" r="44.5" fill="#F3F3F9" stroke="#DCE0E8"></circle><rect x="10.5" y="0.5" width="55" height="71.1778" rx="4.5" fill="white" stroke="#DCE0E8"></rect><rect x="17.4667" y="11.2" width="41.0667" height="1.24444" rx="0.622222" fill="#DCE0E8"></rect><rect x="17.4667" y="28.6222" width="41.0667" height="1.24444" rx="0.622222" fill="#DCE0E8"></rect><rect x="17.4667" y="19.9111" width="41.0667" height="1.24444" rx="0.622222" fill="#DCE0E8"></rect><rect x="17.4667" y="37.3333" width="41.0667" height="1.24444" rx="0.622222" fill="#DCE0E8"></rect><rect x="17.4667" y="46.0445" width="24.8889" height="1.24444" rx="0.622222" fill="#DCE0E8"></rect><path d="M92.9547 58.145H93.1607L93.1735 58.1323C93.6915 58.1229 94.2074 58.2075 94.6955 58.3823C95.2414 58.5779 95.7408 58.8821 96.1632 59.276C96.5855 59.67 96.9219 60.1453 97.1517 60.6726C97.3815 61.1999 97.5 61.7681 97.5 62.3423C97.5 62.9165 97.3815 63.4847 97.1517 64.012C96.9219 64.5393 96.5855 65.0146 96.1632 65.4086C95.7408 65.8025 95.2414 66.1068 94.6955 66.3023C94.1497 66.4978 93.5691 66.5805 92.9897 66.545L92.9744 66.5441H92.9592H83.7586V66.544L83.7486 66.5442C82.7897 66.5634 81.8506 66.2748 81.0712 65.722C80.2929 65.17 79.7156 64.3843 79.4241 63.482L74.9284 48.7026L74.426 47.0509L73.968 48.7154L65.2927 80.2409C64.9868 81.1494 64.3986 81.9395 63.6115 82.4974C62.8208 83.0578 61.8704 83.3545 60.8978 83.3442C59.9251 83.3339 58.9814 83.0171 58.2029 82.4401C57.4245 81.8631 56.8519 81.0561 56.567 80.1362L56.5656 80.1317L48.5881 55.1953L48.2325 54.0835L47.6731 55.108L43.9002 62.0179L43.8987 62.0207C43.6103 62.5569 43.2131 63.0284 42.7317 63.4054C42.2503 63.7824 41.6953 64.0567 41.1014 64.2109C40.5075 64.3651 39.8879 64.3957 39.2814 64.3008C38.675 64.2059 38.0951 63.9876 37.5782 63.6598L37.5754 63.658C36.6225 63.0627 35.9338 62.1317 35.647 61.0537C35.3602 59.9758 35.4962 58.83 36.0279 57.8472L36.0287 57.8458L44.706 41.6825C45.1416 40.8976 45.8027 40.258 46.6059 39.8453C47.4102 39.4321 48.3205 39.2651 49.221 39.3659L49.221 39.3661L49.2333 39.3671C50.1266 39.4448 50.975 39.7883 51.6673 40.3521C52.3597 40.9158 52.8636 41.6734 53.1139 42.5252L53.1177 42.5383L53.1223 42.5513L59.6428 60.9436L59.643 60.9441C59.7205 61.1621 59.8666 61.3487 60.0588 61.4767L60.336 61.0606L60.0588 61.4767C60.2509 61.6047 60.479 61.6675 60.7093 61.6563L60.685 61.1569L60.7093 61.6563C60.9396 61.6451 61.1606 61.5605 61.3394 61.4143L61.0229 61.0272L61.3394 61.4143C61.5179 61.2684 61.6449 61.0687 61.7008 60.8445C61.7009 60.8441 61.701 60.8438 61.7011 60.8434L69.3408 30.4575C69.6416 29.5597 70.2178 28.7765 70.9899 28.2181C71.7669 27.6561 72.7028 27.3504 73.6653 27.3446C74.6278 27.3388 75.5674 27.6333 76.3512 28.1859C77.1343 28.7379 77.7221 29.5194 78.0326 30.4196C78.0329 30.4205 78.0332 30.4213 78.0335 30.4222L87.0837 57.8019L87.1971 58.145H87.5584H92.9547Z" fill="#F3F4FB" stroke="#DCE0E8"></path></svg>