<svg width="16" height="17" viewBox="0 0 16 17" fill="none" xmlns="http://www.w3.org/2000/svg"><path fill-rule="evenodd" clip-rule="evenodd" d="M2 3.5C1.44772 3.5 1 3.94772 1 4.5V6.08333H1.73903H14.2577H15V4.5C15 3.94772 14.5523 3.5 14 3.5H2ZM15 7.58333H14.2577H1.73903H1V12.5C1 13.0523 1.44772 13.5 2 13.5H14C14.5523 13.5 15 13.0523 15 12.5V7.58333ZM3.625 10.25C3.21079 10.25 2.875 10.5858 2.875 11C2.875 11.4142 3.21079 11.75 3.625 11.75H6.25C6.66421 11.75 7 11.4142 7 11C7 10.5858 6.66421 10.25 6.25 10.25H3.625Z" fill="#1A1A1A"></path></svg>